<svg width="463" height="137" viewBox="0 0 463 137" fill="none" xmlns="http://www.w3.org/2000/svg">
<path d="M135.02 111C134.486 111 134.22 110.733 134.22 110.2V55.8C134.22 55.2667 134.486 55 135.02 55H153.58C158.7 55 162.753 56.36 165.74 59.08C168.726 61.7467 170.22 65.4 170.22 70.04V95.96C170.22 100.6 168.726 104.28 165.74 107C162.753 109.667 158.7 111 153.58 111H135.02ZM138.46 106.92C138.46 107.133 138.566 107.24 138.78 107.24H153.82C157.553 107.24 160.486 106.2 162.62 104.12C164.806 101.987 165.926 99.1067 165.98 95.48V70.52C165.98 66.8933 164.886 64.04 162.7 61.96C160.566 59.8267 157.606 58.76 153.82 58.76H138.78C138.566 58.76 138.46 58.8667 138.46 59.08V106.92ZM184.473 111C183.939 111 183.673 110.733 183.673 110.2V55.8C183.673 55.2667 183.939 55 184.473 55H187.113C187.646 55 187.913 55.2667 187.913 55.8V110.2C187.913 110.733 187.646 111 187.113 111H184.473ZM220.778 111.64C217.151 111.64 213.951 110.92 211.178 109.48C208.404 108.04 206.244 106.04 204.698 103.48C203.204 100.867 202.458 97.88 202.458 94.52V71.48C202.458 68.0667 203.204 65.08 204.698 62.52C206.244 59.9067 208.404 57.9067 211.178 56.52C213.951 55.08 217.151 54.36 220.778 54.36C224.351 54.36 227.498 55.08 230.218 56.52C232.991 57.9067 235.124 59.8533 236.618 62.36C238.164 64.8667 238.938 67.7467 238.938 71V72.12C238.938 72.6533 238.671 72.92 238.138 72.92H235.498C234.964 72.92 234.698 72.6533 234.698 72.12V71.08C234.698 67.24 233.418 64.12 230.858 61.72C228.298 59.32 224.938 58.12 220.778 58.12C216.564 58.12 213.151 59.3467 210.538 61.8C207.978 64.2 206.698 67.3733 206.698 71.32V94.68C206.698 98.6267 207.978 101.827 210.538 104.28C213.151 106.68 216.591 107.88 220.858 107.88C225.018 107.88 228.351 106.733 230.858 104.44C233.418 102.093 234.698 99 234.698 95.16V87.08C234.698 86.8667 234.591 86.76 234.378 86.76H221.898C221.364 86.76 221.098 86.4933 221.098 85.96V83.8C221.098 83.2667 221.364 83 221.898 83H238.138C238.671 83 238.938 83.2667 238.938 83.8V94.2C238.938 99.5867 237.284 103.853 233.978 107C230.671 110.093 226.271 111.64 220.778 111.64ZM254.238 111C253.705 111 253.438 110.733 253.438 110.2V55.8C253.438 55.2667 253.705 55 254.238 55H256.878C257.412 55 257.678 55.2667 257.678 55.8V110.2C257.678 110.733 257.412 111 256.878 111H254.238Z" fill="#19191E"/>
<path d="M282.068 124.775C277.417 124.775 273.961 124.007 271.7 122.471C269.439 120.977 268.308 118.951 268.308 116.391C268.308 114.94 268.649 113.681 269.332 112.615C270.057 111.591 271.145 110.759 272.596 110.119C274.089 109.521 275.988 109.201 278.292 109.159C276.457 108.689 275.049 107.857 274.068 106.663C273.129 105.468 272.66 104.167 272.66 102.759C272.66 101.393 273.108 100.156 274.004 99.0468C274.943 97.8948 276.351 96.9988 278.228 96.3588C276.095 95.6335 274.388 94.4175 273.108 92.7108C271.871 91.0041 271.252 88.8495 271.252 86.2468C271.252 82.5775 272.276 79.6975 274.324 77.6068C276.415 75.4735 279.529 74.4068 283.668 74.4068C285.204 74.4068 286.591 74.5988 287.828 74.9828C289.108 75.3668 290.239 75.9215 291.22 76.6468C291.988 75.7508 292.884 74.9188 293.908 74.1508C294.932 73.3828 296.148 72.9988 297.556 72.9988C298.836 72.9988 299.796 73.3401 300.436 74.0228C301.076 74.6628 301.396 75.4735 301.396 76.4548C301.396 77.3081 301.119 78.0548 300.564 78.6948C300.009 79.2921 299.049 79.5908 297.684 79.5908C297.684 78.2681 297.449 77.2868 296.98 76.6468C296.511 76.0068 295.785 75.6868 294.804 75.6868C294.292 75.6868 293.801 75.7935 293.332 76.0068C292.905 76.1775 292.372 76.5188 291.732 77.0308C292.969 78.0975 293.908 79.4201 294.548 80.9988C295.231 82.5348 295.572 84.2415 295.572 86.1188C295.572 89.3188 294.591 91.9641 292.628 94.0548C290.708 96.1455 287.721 97.1908 283.668 97.1908C282.815 97.1908 282.004 97.1481 281.236 97.0628C280.468 96.9348 279.721 96.7855 278.996 96.6148C278.057 97.0415 277.396 97.5321 277.012 98.0868C276.671 98.6415 276.5 99.2601 276.5 99.9428C276.5 101.009 276.863 101.799 277.588 102.311C278.356 102.78 279.529 103.015 281.108 103.015H288.468C292.393 103.015 295.209 103.911 296.916 105.703C298.623 107.495 299.476 109.82 299.476 112.679C299.476 116.391 298.068 119.335 295.252 121.511C292.436 123.687 288.041 124.775 282.068 124.775ZM282.644 124.135C286.484 124.135 289.364 123.431 291.284 122.023C293.247 120.615 294.228 118.503 294.228 115.687C294.228 113.596 293.673 112.039 292.564 111.015C291.455 109.991 289.748 109.479 287.444 109.479H280.596C279.359 109.479 278.228 109.692 277.204 110.119C276.18 110.588 275.348 111.335 274.708 112.359C274.111 113.383 273.812 114.769 273.812 116.519C273.812 118.225 274.153 119.633 274.836 120.743C275.561 121.895 276.564 122.748 277.844 123.303C279.167 123.857 280.767 124.135 282.644 124.135ZM283.476 96.5508C284.799 96.5508 285.844 96.1881 286.612 95.4628C287.38 94.7375 287.935 93.6068 288.276 92.0708C288.617 90.5348 288.788 88.5508 288.788 86.1188C288.788 83.5161 288.617 81.4041 288.276 79.7828C287.935 78.1615 287.359 76.9668 286.548 76.1988C285.78 75.4308 284.735 75.0468 283.412 75.0468C282.132 75.0468 281.087 75.4521 280.276 76.2628C279.508 77.0735 278.932 78.2895 278.548 79.9108C278.207 81.5321 278.036 83.6228 278.036 86.1828C278.036 88.6148 278.207 90.5988 278.548 92.1348C278.932 93.6708 279.529 94.8015 280.34 95.5268C281.151 96.2095 282.196 96.5508 283.476 96.5508ZM303.441 109.415V108.775H304.209C305.318 108.775 306.235 108.625 306.961 108.327C307.729 108.028 308.305 107.537 308.689 106.855C309.073 106.172 309.265 105.233 309.265 104.039V80.4228C309.265 79.2708 309.073 78.3535 308.689 77.6708C308.305 76.9881 307.729 76.4975 306.961 76.1988C306.235 75.9001 305.318 75.7508 304.209 75.7508H304.017V75.1108H316.241V81.2548H316.369C316.71 80.0601 317.201 78.9508 317.841 77.9268C318.523 76.9028 319.462 76.0708 320.657 75.4308C321.851 74.7481 323.409 74.4068 325.329 74.4068C327.547 74.4068 329.233 74.8548 330.385 75.7508C331.537 76.6041 332.113 77.8201 332.113 79.3988C332.113 80.8495 331.579 82.0228 330.513 82.9188C329.446 83.8148 327.803 84.2628 325.585 84.2628C325.585 81.4468 325.158 79.5055 324.305 78.4388C323.494 77.3721 322.534 76.8388 321.425 76.8388C320.358 76.8388 319.483 77.2015 318.801 77.9268C318.118 78.6521 317.585 79.6335 317.201 80.8708C316.859 82.1081 316.625 83.4308 316.497 84.8388C316.369 86.2468 316.305 87.6761 316.305 89.1268V103.847C316.305 105.084 316.497 106.065 316.881 106.791C317.265 107.516 317.841 108.028 318.609 108.327C319.377 108.625 320.294 108.775 321.361 108.775H322.513V109.415H303.441ZM345.413 110.055C342.213 110.055 339.674 109.201 337.797 107.495C335.92 105.745 334.981 103.399 334.981 100.455C334.981 97.1695 336.176 94.7375 338.565 93.1588C340.954 91.5801 344.602 90.7055 349.509 90.5348L354.757 90.3428V84.6468C354.757 82.3855 354.629 80.5508 354.373 79.1428C354.117 77.7348 353.605 76.7108 352.837 76.0708C352.069 75.3881 350.917 75.0468 349.381 75.0468C347.12 75.0468 345.648 75.8148 344.965 77.3508C344.282 78.8441 343.941 81.3188 343.941 84.7748C341.893 84.7748 340.336 84.4761 339.269 83.8788C338.202 83.2388 337.669 82.2148 337.669 80.8068C337.669 79.2708 338.202 78.0335 339.269 77.0948C340.378 76.1561 341.829 75.4735 343.621 75.0468C345.456 74.6201 347.461 74.4068 349.637 74.4068C353.69 74.4068 356.72 75.2388 358.725 76.9028C360.773 78.5668 361.797 81.4041 361.797 85.4148V104.551C361.797 105.617 361.925 106.471 362.181 107.111C362.437 107.708 362.864 108.135 363.461 108.391C364.058 108.647 364.826 108.775 365.765 108.775H365.957V109.415H355.205V102.759H355.077C354.608 104.508 353.904 105.916 352.965 106.983C352.026 108.049 350.917 108.839 349.637 109.351C348.357 109.82 346.949 110.055 345.413 110.055ZM347.269 108.903C348.762 108.903 350.064 108.476 351.173 107.623C352.325 106.769 353.2 105.66 353.797 104.295C354.437 102.887 354.757 101.372 354.757 99.7508V91.0468L350.981 91.1748C347.653 91.3455 345.349 92.1561 344.069 93.6068C342.832 95.0575 342.213 97.4895 342.213 100.903C342.213 102.695 342.384 104.188 342.725 105.383C343.109 106.577 343.685 107.473 344.453 108.071C345.221 108.625 346.16 108.903 347.269 108.903ZM355.845 69.0948C355.034 69.0948 354.352 68.8175 353.797 68.2628C353.242 67.7081 352.965 66.7481 352.965 65.3828C352.965 63.9748 353.242 63.0148 353.797 62.5028C354.352 61.9481 355.034 61.6708 355.845 61.6708C356.613 61.6708 357.274 61.9481 357.829 62.5028C358.426 63.0148 358.725 63.9748 358.725 65.3828C358.725 66.7481 358.426 67.7081 357.829 68.2628C357.274 68.8175 356.613 69.0948 355.845 69.0948ZM343.429 69.0948C342.618 69.0948 341.936 68.8175 341.381 68.2628C340.826 67.7081 340.549 66.7481 340.549 65.3828C340.549 63.9748 340.826 63.0148 341.381 62.5028C341.936 61.9481 342.618 61.6708 343.429 61.6708C344.197 61.6708 344.858 61.9481 345.413 62.5028C346.01 63.0148 346.309 63.9748 346.309 65.3828C346.309 66.7481 346.01 67.7081 345.413 68.2628C344.858 68.8175 344.197 69.0948 343.429 69.0948ZM383.957 110.055C380.799 110.055 378.453 109.329 376.917 107.879C375.381 106.385 374.613 103.783 374.613 100.071V75.7508H369.813V75.1108C371.477 75.1108 372.927 74.9615 374.165 74.6628C375.445 74.3215 376.533 73.8095 377.429 73.1268C378.367 72.4441 379.114 71.5695 379.669 70.5028C380.266 69.3935 380.714 68.0708 381.013 66.5348H381.653V75.1108H390.421V75.7508H381.653V102.567C381.653 104.743 382.058 106.364 382.869 107.431C383.722 108.497 384.959 109.031 386.581 109.031C387.178 109.031 387.797 108.967 388.437 108.839C389.119 108.711 389.823 108.519 390.549 108.263V108.903C389.994 109.159 389.098 109.415 387.861 109.671C386.623 109.927 385.322 110.055 383.957 110.055ZM394.273 109.415V108.775L413.921 76.0068H404.385C402.55 76.0068 401.078 76.2415 399.969 76.7108C398.859 77.1375 398.006 77.8841 397.409 78.9508C396.854 80.0175 396.449 81.4681 396.193 83.3028L396.065 84.5828H395.425L396.065 75.1108H421.473V75.7508L401.825 108.519H412.961C414.838 108.519 416.331 108.284 417.441 107.815C418.593 107.303 419.446 106.449 420.001 105.255C420.598 104.06 420.982 102.481 421.153 100.519L421.281 98.7268H421.921L421.537 109.415H394.273ZM425.929 109.415V108.775H426.761C427.87 108.775 428.787 108.625 429.513 108.327C430.281 108.028 430.857 107.537 431.241 106.855C431.625 106.172 431.817 105.233 431.817 104.039V66.0868C431.817 64.9348 431.625 64.0175 431.241 63.3348C430.857 62.6521 430.281 62.1615 429.513 61.8628C428.745 61.5641 427.827 61.4148 426.761 61.4148H425.929V60.7748H438.857V103.847C438.857 105.084 439.049 106.065 439.433 106.791C439.817 107.516 440.371 108.028 441.097 108.327C441.865 108.625 442.803 108.775 443.913 108.775H444.681V109.415H425.929Z" fill="#19191E"/>
<g clip-path="url(#clip0_184_95)">
<path d="M38.9632 41.7989C51.1939 34.5872 64.2402 36.7736 73.4348 47.572C74.3446 48.6416 74.3 50.2227 73.3212 51.2316C73.3089 51.2435 73.2988 51.2553 73.286 51.2664C72.2059 52.3831 70.406 52.3782 69.3525 51.2388C61.7016 42.9663 51.5614 41.2695 41.62 46.5942C40.2499 47.3275 38.5486 46.7473 37.8929 45.3409C37.886 45.3268 37.8795 45.3114 37.8715 45.2955C37.2767 44.0236 37.7516 42.5129 38.9632 41.7989Z" fill="#0172BB"/>
<path d="M63.8028 31.1576C63.3205 34.0161 60.6123 35.9441 57.7527 35.4661C54.8935 34.9867 52.9661 32.2818 53.4469 29.4229C53.9292 26.5644 56.6374 24.6364 59.497 25.1144C62.3571 25.5933 64.2836 28.2988 63.8028 31.1576Z" fill="#0172BB"/>
<path d="M30.6641 80.4243C30.5401 66.2365 38.968 56.0362 52.9292 53.4677C54.3117 53.2144 55.6589 54.0436 56.0437 55.3935C56.0479 55.4091 56.0521 55.4247 56.0568 55.4412C56.4834 56.9342 55.5775 58.4881 54.0623 58.8324C43.0633 61.3253 36.5151 69.2544 36.15 80.5178C36.0994 82.0698 34.7447 83.2525 33.1975 83.1185C33.1806 83.1163 33.1647 83.1158 33.1483 83.1145C31.747 82.9937 30.6765 81.8292 30.6641 80.4243Z" fill="#DB0F10"/>
<path d="M33.8826 53.6113C36.118 55.454 36.4332 58.7625 34.5859 60.9982C32.74 63.2343 29.4301 63.5515 27.1947 61.7088C24.9597 59.8647 24.6435 56.5566 26.4909 54.3209C28.3382 52.0852 31.6475 51.7671 33.8826 53.6113Z" fill="#DB0F10"/>
<path d="M59.9761 106.89C47.6205 99.9146 43.0031 87.5273 47.7697 74.1604C48.241 72.8371 49.6346 72.0842 50.9978 72.4266C51.0129 72.4299 51.0285 72.4341 51.0451 72.4378C52.5514 72.8155 53.4444 74.3747 52.9837 75.858C49.6364 86.6228 53.2276 96.2492 62.8044 102.189C64.1233 103.007 64.4705 104.77 63.5793 106.041C63.57 106.056 63.5605 106.069 63.5515 106.083C62.7456 107.235 61.1997 107.58 59.9761 106.89Z" fill="#FDB620"/>
<path d="M38.355 90.7182C41.0723 89.7039 44.0957 91.0821 45.1084 93.7967C46.1217 96.5122 44.7398 99.5352 42.0225 100.55C39.3052 101.564 36.2819 100.186 35.2686 97.4702C34.2563 94.7565 35.6378 91.7325 38.355 90.7182Z" fill="#FDB620"/>
<path d="M97.5868 94.7293C85.3558 101.942 72.3104 99.7555 63.1149 88.9577C62.205 87.888 62.2501 86.3056 63.2293 85.2976C63.2403 85.2853 63.2517 85.2738 63.2632 85.2624C64.3438 84.1466 66.1431 84.1506 67.1972 85.2909C74.8489 93.5628 84.9868 95.2598 94.9297 89.9354C96.2992 89.2013 98.0006 89.7814 98.6571 91.1874C98.6636 91.2028 98.6706 91.2169 98.6776 91.2333C99.2733 92.5047 98.7975 94.0159 97.5868 94.7293Z" fill="#E53990"/>
<path d="M72.7478 105.372C73.2291 102.514 75.9377 100.584 78.7964 101.063C81.6565 101.542 83.5844 104.247 83.1022 107.106C82.6208 109.964 79.9122 111.893 77.053 111.414C74.1929 110.935 72.2655 108.23 72.7478 105.372Z" fill="#E53990"/>
<path d="M105.885 56.1045C106.01 70.2917 97.5817 80.4935 83.6199 83.061C82.2388 83.3147 80.8908 82.4861 80.5068 81.1357C80.5021 81.1191 80.497 81.104 80.4923 81.0875C80.0671 79.5949 80.9725 78.0402 82.4882 77.6967C93.4873 75.2039 100.035 67.2753 100.401 56.0113C100.45 54.4599 101.805 53.2758 103.353 53.4106C103.369 53.412 103.385 53.4124 103.402 53.4138C104.802 53.535 105.873 54.7005 105.885 56.1045Z" fill="#24A620"/>
<path d="M102.667 82.9175C100.432 81.0742 100.116 77.7671 101.963 75.5305C103.811 73.2948 107.119 72.9758 109.355 74.8208C111.591 76.6644 111.906 79.9707 110.059 82.2073C108.212 84.4439 104.903 84.762 102.667 82.9175Z" fill="#24A620"/>
<path d="M76.5735 29.6397C88.9286 36.6143 93.5466 49.0025 88.7803 62.3679C88.3081 63.6918 86.9154 64.4442 85.5528 64.1027C85.5371 64.0985 85.5215 64.0943 85.5049 64.0906C83.9983 63.7144 83.1047 62.1542 83.5654 60.6709C86.9136 49.9056 83.3215 40.2797 73.7447 34.3401C72.4258 33.5223 72.08 31.7589 72.9701 30.486C72.9806 30.4728 72.9886 30.4597 72.999 30.4465C73.8044 29.2935 75.3509 28.9491 76.5735 29.6397Z" fill="#32318F"/>
<path d="M98.194 45.8104C95.4767 46.8248 92.4534 45.4466 91.4421 42.7324C90.4288 40.0169 91.8102 36.9929 94.5275 35.9786C97.2448 34.9642 100.268 36.3438 101.281 39.057C102.293 41.773 100.912 44.7956 98.194 45.8104Z" fill="#32318F"/>
</g>
<defs>
<clipPath id="clip0_184_95">
<rect width="100" height="100" fill="white" transform="translate(0 50) rotate(-30)"/>
</clipPath>
</defs>
</svg>