<svg width="463" height="137" viewBox="0 0 463 137" xmlns="http://www.w3.org/2000/svg">
    <g>
        <path d="M38.9632 41.7989C51.1939 34.5872 64.2402 36.7736 73.4348 47.572C74.3446 48.6416 74.3 50.2227 73.3212 51.2316C73.3089 51.2435 73.2988 51.2553 73.286 51.2664C72.2059 52.3831 70.406 52.3782 69.3525 51.2388C61.7016 42.9663 51.5614 41.2695 41.62 46.5942C40.2499 47.3275 38.5486 46.7473 37.8929 45.3409C37.886 45.3268 37.8795 45.3114 37.8715 45.2955C37.2767 44.0236 37.7516 42.5129 38.9632 41.7989Z" fill="#0172BB"/>
        <path d="M63.8028 31.1576C63.3205 34.0161 60.6123 35.9441 57.7527 35.4661C54.8935 34.9867 52.9661 32.2817 53.4469 29.4229C53.9292 26.5644 56.6374 24.6364 59.497 25.1144C62.3571 25.5933 64.2836 28.2988 63.8028 31.1576Z" fill="#0172BB"/>
        <path d="M30.6641 80.4243C30.5401 66.2365 38.968 56.0362 52.9292 53.4677C54.3117 53.2144 55.6589 54.0436 56.0437 55.3935C56.0479 55.4091 56.0521 55.4247 56.0568 55.4412C56.4834 56.9342 55.5775 58.4881 54.0623 58.8324C43.0633 61.3253 36.5151 69.2544 36.15 80.5178C36.0994 82.0698 34.7447 83.2525 33.1975 83.1185C33.1806 83.1163 33.1647 83.1158 33.1483 83.1145C31.747 82.9937 30.6765 81.8292 30.6641 80.4243Z" fill="#DB0F10"/>
        <path d="M33.8826 53.6113C36.118 55.454 36.4332 58.7625 34.5859 60.9982C32.74 63.2343 29.4301 63.5515 27.1947 61.7088C24.9597 59.8647 24.6435 56.5566 26.4909 54.3209C28.3382 52.0852 31.6475 51.7671 33.8826 53.6113Z" fill="#DB0F10"/>
        <path d="M59.9761 106.89C47.6205 99.9146 43.0031 87.5273 47.7697 74.1604C48.241 72.8371 49.6346 72.0842 50.9978 72.4266C51.0129 72.4299 51.0285 72.4341 51.0451 72.4378C52.5514 72.8155 53.4444 74.3747 52.9837 75.858C49.6364 86.6228 53.2276 96.2492 62.8044 102.189C64.1233 103.007 64.4705 104.77 63.5793 106.041C63.57 106.056 63.5605 106.069 63.5515 106.083C62.7456 107.235 61.1997 107.58 59.9761 106.89Z" fill="#FDB620"/>
        <path d="M38.355 90.7182C41.0723 89.7039 44.0957 91.0821 45.1084 93.7967C46.1217 96.5122 44.7398 99.5352 42.0225 100.55C39.3052 101.564 36.2819 100.186 35.2686 97.4702C34.2563 94.7565 35.6378 91.7325 38.355 90.7182Z" fill="#FDB620"/>
        <path d="M97.5868 94.7293C85.3558 101.942 72.3104 99.7555 63.1149 88.9577C62.205 87.888 62.2501 86.3056 63.2293 85.2976C63.2403 85.2853 63.2517 85.2738 63.2632 85.2624C64.3438 84.1466 66.1431 84.1506 67.1972 85.2909C74.8489 93.5628 84.9868 95.2598 94.9297 89.9354C96.2992 89.2013 98.0006 89.7814 98.6571 91.1874C98.6636 91.2028 98.6706 91.2169 98.6776 91.2333C99.2733 92.5047 98.7975 94.0159 97.5868 94.7293Z" fill="#E53990"/>
        <path d="M72.7478 105.372C73.2291 102.514 75.9377 100.584 78.7964 101.063C81.6565 101.542 83.5844 104.247 83.1022 107.106C82.6208 109.964 79.9122 111.893 77.053 111.414C74.1929 110.935 72.2655 108.23 72.7478 105.372Z" fill="#E53990"/>
        <path d="M105.885 56.1045C106.01 70.2917 97.5817 80.4935 83.6199 83.061C82.2388 83.3147 80.8908 82.4861 80.5068 81.1357C80.5021 81.1191 80.497 81.104 80.4923 81.0875C80.0671 79.5949 80.9725 78.0402 82.4882 77.6967C93.4873 75.2039 100.035 67.2753 100.401 56.0113C100.45 54.4599 101.805 53.2758 103.353 53.4106C103.369 53.412 103.385 53.4124 103.402 53.4138C104.802 53.535 105.873 54.7005 105.885 56.1045Z" fill="#24A620"/>
        <path d="M102.667 82.9175C100.432 81.0742 100.116 77.7671 101.963 75.5305C103.811 73.2948 107.119 72.9758 109.355 74.8208C111.591 76.6644 111.906 79.9707 110.059 82.2073C108.212 84.4439 104.903 84.762 102.667 82.9175Z" fill="#24A620"/>
        <path d="M76.5735 29.6397C88.9286 36.6143 93.5466 49.0025 88.7803 62.3679C88.3081 63.6918 86.9154 64.4442 85.5528 64.1027C85.5371 64.0985 85.5215 64.0943 85.5049 64.0906C83.9983 63.7144 83.1047 62.1542 83.5654 60.6709C86.9136 49.9056 83.3215 40.2797 73.7447 34.3401C72.4258 33.5223 72.08 31.7589 72.9701 30.486C72.9806 30.4728 72.9886 30.4597 72.999 30.4465C73.8044 29.2935 75.3509 28.9491 76.5735 29.6397Z" fill="#32318F"/>
        <path d="M98.194 45.8104C95.4767 46.8248 92.4534 45.4466 91.4421 42.7324C90.4288 40.0169 91.8102 36.9929 94.5275 35.9786C97.2448 34.9642 100.268 36.3438 101.281 39.057C102.293 41.773 100.912 44.7956 98.194 45.8104Z" fill="#32318F"/>
    </g>
    <style>
        .digi{
            font-family: 'Barlow';
            font-weight: 300;
            font-size: 72px;
        }
        .graetzl{
            font-family: 'Noto Serif Display';
            font-weight: 500;
            font-size: 58px;
        }
    </style>
    <text x="135" y="112" fill="inherit" class="digi">DIGI<tspan class="graetzl">grätzl</tspan></text>  
</svg>